<svg>
<polyline
	points="20,430 610,430 610,30 20,30 20,430"
	fill="#fff"
/>
<polyline
	points="20,430.0 610,430.0"
	stroke="#ddd"
	stroke-width="1"
	fill="none"
	shape-rendering="crispEdges"
/>
<polyline
	points="20,330.0 610,330.0"
	shape-rendering="crispEdges"
	stroke="#ddd"
	stroke-width="1"
	fill="none"
/>
<polyline
	points="20,230.0 610,230.0"
	stroke="#ddd"
	stroke-width="1"
	fill="none"
	shape-rendering="crispEdges"
/>
<polyline
	points="20,130.0 610,130.0"
	shape-rendering="crispEdges"
	stroke="#ddd"
	stroke-width="1"
	fill="none"
/>
<polyline
	points="20,30.0 610,30.0"
	stroke="#ddd"
	stroke-width="1"
	fill="none"
	shape-rendering="crispEdges"
/>
<polyline
	points="20.0,430 20.0,30"
	shape-rendering="crispEdges"
	stroke="#ddd"
	stroke-width="1"
	fill="none"
/>
<polyline
	points="118.333333333,430 118.333333333,30"
	stroke="#ddd"
	stroke-width="1"
	fill="none"
	shape-rendering="crispEdges"
/>
<polyline
	points="216.666666667,430 216.666666667,30"
	shape-rendering="crispEdges"
	stroke="#ddd"
	stroke-width="1"
	fill="none"
/>
<polyline
	points="315.0,430 315.0,30"
	stroke="#ddd"
	stroke-width="1"
	fill="none"
	shape-rendering="crispEdges"
/>
<polyline
	points="413.333333333,430 413.333333333,30"
	shape-rendering="crispEdges"
	stroke="#ddd"
	stroke-width="1"
	fill="none"
/>
<polyline
	points="511.666666667,430 511.666666667,30"
	stroke="#ddd"
	stroke-width="1"
	fill="none"
	shape-rendering="crispEdges"
/>
<polyline
	points="610.0,430 610.0,30"
	shape-rendering="crispEdges"
	stroke="#ddd"
	stroke-width="1"
	fill="none"
/>
<polyline
	points="19,30 613,30"
	stroke="#999"
	stroke-width="1"
	fill="none"
	shape-rendering="crispEdges"
/>
<polyline
	points="19,430 613,430"
	shape-rendering="crispEdges"
	stroke="#999"
	stroke-width="1"
	fill="none"
/>
<polyline
	points="20,433 20,30"
	stroke="#999"
	stroke-width="1"
	fill="none"
	shape-rendering="crispEdges"
/>
<polyline
	points="610,433 610,30"
	shape-rendering="crispEdges"
	stroke="#999"
	stroke-width="1"
	fill="none"
/>
<polyline
	points="65,30 61,32 59,33 55,35 51,37 49,38 45,40 45,41 40,43 37,48 34,52 32,55 29,60 28,64 26,68 25,72 23,75 22,80 21,85 20,89 20,430 65,430 65,30"
	stroke="#4aa635"
	stroke-width="1"
	fill="#4aa635"
/>
<polyline
	points="65,30 65,430 20,430 20,89"
	stroke="#4aa635"
	stroke-width="1"
	fill="none"
/>
<polyline
	points="462,130 460,127 458,123 456,119 454,115 452,110 450,106 448,103 446,98 444,95 441,91 439,87 437,83 435,79 433,75 431,71 429,66 427,63 424,58 422,54 420,50 418,46 416,42 414,39 412,35 410,34 406,31 401,30 397,30 393,30 389,30 385,30 381,30 377,30 373,30 369,30 365,30 360,30 356,30 352,30 348,30 344,30 340,30 336,30 332,30 328,30 324,30 319,30 315,30 311,30 307,30 303,30 299,30 295,30 291,30 287,30 282,30 278,30 274,30 270,30 266,30 262,30 258,30 254,30 250,30 246,30 241,30 237,30 233,30 229,30 225,30 221,30 217,30 213,30 209,30 205,30 200,30 196,30 192,30 188,30 184,30 180,30 176,30 172,30 168,30 164,30 159,30 155,30 151,30 147,30 143,30 139,30 135,30 131,30 127,30 122,30 118,30 114,30 110,30 106,30 102,30 98,30 94,30 90,30 86,30 81,30 77,30 73,30 69,30 65,30 65,430 462,430 462,130"
	stroke="#2e7eb3"
	stroke-width="1"
	fill="#2e7eb3"
/>
<polyline
	points="462,130 462,430 65,430 65,30"
	stroke="#2e7eb3"
	stroke-width="1"
	fill="none"
/>
<polyline
	points="610,430 462,130"
	stroke="#2e7eb3"
	stroke-width="1"
	stroke-dasharray="10, 5"
	fill="none"
/>
<polyline
	points="20,430.0 610,430.0"
	fill="none"
	stroke="#ddd"
	stroke-width="1"
	stroke-dasharray="1, 5"
	shape-rendering="crispEdges"
/>
<polyline
	points="20,330.0 610,330.0"
	shape-rendering="crispEdges"
	stroke="#ddd"
	stroke-width="1"
	stroke-dasharray="1, 5"
	fill="none"
/>
<polyline
	points="20,230.0 610,230.0"
	fill="none"
	stroke="#ddd"
	stroke-width="1"
	stroke-dasharray="1, 5"
	shape-rendering="crispEdges"
/>
<polyline
	points="20,130.0 610,130.0"
	shape-rendering="crispEdges"
	stroke="#ddd"
	stroke-width="1"
	stroke-dasharray="1, 5"
	fill="none"
/>
<polyline
	points="20,30.0 610,30.0"
	fill="none"
	stroke="#ddd"
	stroke-width="1"
	stroke-dasharray="1, 5"
	shape-rendering="crispEdges"
/>
<polyline
	points="20.0,430 20.0,30"
	shape-rendering="crispEdges"
	stroke="#ddd"
	stroke-width="1"
	stroke-dasharray="1, 5"
	fill="none"
/>
<polyline
	points="118.333333333,430 118.333333333,30"
	fill="none"
	stroke="#ddd"
	stroke-width="1"
	stroke-dasharray="1, 5"
	shape-rendering="crispEdges"
/>
<polyline
	points="216.666666667,430 216.666666667,30"
	shape-rendering="crispEdges"
	stroke="#ddd"
	stroke-width="1"
	stroke-dasharray="1, 5"
	fill="none"
/>
<polyline
	points="315.0,430 315.0,30"
	fill="none"
	stroke="#ddd"
	stroke-width="1"
	stroke-dasharray="1, 5"
	shape-rendering="crispEdges"
/>
<polyline
	points="413.333333333,430 413.333333333,30"
	shape-rendering="crispEdges"
	stroke="#ddd"
	stroke-width="1"
	stroke-dasharray="1, 5"
	fill="none"
/>
<polyline
	points="511.666666667,430 511.666666667,30"
	fill="none"
	stroke="#ddd"
	stroke-width="1"
	stroke-dasharray="1, 5"
	shape-rendering="crispEdges"
/>
<polyline
	points="610.0,430 610.0,30"
	shape-rendering="crispEdges"
	stroke="#ddd"
	stroke-width="1"
	stroke-dasharray="1, 5"
	fill="none"
/>
<polyline
	points="19,30 613,30"
	stroke="#999"
	stroke-width="1"
	fill="none"
	shape-rendering="crispEdges"
/>
<polyline
	points="19,430 613,430"
	shape-rendering="crispEdges"
	stroke="#999"
	stroke-width="1"
	fill="none"
/>
<polyline
	points="20,433 20,30"
	stroke="#999"
	stroke-width="1"
	fill="none"
	shape-rendering="crispEdges"
/>
<polyline
	points="610,433 610,30"
	shape-rendering="crispEdges"
	stroke="#999"
	stroke-width="1"
	fill="none"
/>
<text
	font-size="10"
	text-anchor="start"
	y="433.0"
	x="615"
	font-family="Verdana"
	fill="#777"
>
0 %
</text>
<text
	font-size="10"
	text-anchor="start"
	y="333.0"
	x="615"
	font-family="Verdana"
	fill="#777"
>
25 %
</text>
<text
	font-size="10"
	text-anchor="start"
	y="233.0"
	x="615"
	font-family="Verdana"
	fill="#777"
>
50 %
</text>
<text
	font-size="10"
	text-anchor="start"
	y="133.0"
	x="615"
	font-family="Verdana"
	fill="#777"
>
75%
</text>
<text
	font-size="10"
	text-anchor="start"
	y="33.0"
	x="615"
	font-family="Verdana"
	fill="#777"
>
100 %
</text>
<text
	font-size="10"
	text-anchor="middle"
	y="445"
	x="20.0"
	font-family="Verdana"
	fill="#777"
>
12 hours
</text>
<text
	font-size="10"
	text-anchor="middle"
	y="445"
	x="118.333333333"
	font-family="Verdana"
	fill="#777"
>
10
</text>
<text
	font-size="10"
	text-anchor="middle"
	y="445"
	x="216.666666667"
	font-family="Verdana"
	fill="#777"
>
8
</text>
<text
	font-size="10"
	text-anchor="middle"
	y="445"
	x="315.0"
	font-family="Verdana"
	fill="#777"
>
6
</text>
<text
	font-size="10"
	text-anchor="middle"
	y="445"
	x="413.333333333"
	font-family="Verdana"
	fill="#777"
>
4
</text>
<text
	font-size="10"
	text-anchor="middle"
	y="445"
	x="511.666666667"
	font-family="Verdana"
	fill="#777"
>
2
</text>
<text
	font-size="10"
	text-anchor="middle"
	y="445"
	x="610.0"
	font-family="Verdana"
	fill="#777"
>
0
</text>
<text
	font-size="10"
	text-anchor="start"
	y="433.0"
	x="615"
	font-family="Verdana"
	fill="#777"
>
0 %
</text>
<text
	font-size="10"
	text-anchor="start"
	y="333.0"
	x="615"
	font-family="Verdana"
	fill="#777"
>
25 %
</text>
<text
	font-size="10"
	text-anchor="start"
	y="233.0"
	x="615"
	font-family="Verdana"
	fill="#777"
>
50 %
</text>
<text
	font-size="10"
	text-anchor="start"
	y="133.0"
	x="615"
	font-family="Verdana"
	fill="#777"
>
75%
</text>
<text
	font-size="10"
	text-anchor="start"
	y="33.0"
	x="615"
	font-family="Verdana"
	fill="#777"
>
100 %
</text>
<text
	font-size="10"
	text-anchor="middle"
	y="445"
	x="20.0"
	font-family="Verdana"
	fill="#777"
>
12 hours
</text>
<text
	font-size="10"
	text-anchor="middle"
	y="445"
	x="118.333333333"
	font-family="Verdana"
	fill="#777"
>
10
</text>
<text
	font-size="10"
	text-anchor="middle"
	y="445"
	x="216.666666667"
	font-family="Verdana"
	fill="#777"
>
8
</text>
<text
	font-size="10"
	text-anchor="middle"
	y="445"
	x="315.0"
	font-family="Verdana"
	fill="#777"
>
6
</text>
<text
	font-size="10"
	text-anchor="middle"
	y="445"
	x="413.333333333"
	font-family="Verdana"
	fill="#777"
>
4
</text>
<text
	font-size="10"
	text-anchor="middle"
	y="445"
	x="511.666666667"
	font-family="Verdana"
	fill="#777"
>
2
</text>
<text
	font-size="10"
	text-anchor="middle"
	y="445"
	x="610.0"
	font-family="Verdana"
	fill="#777"
>
0
</text>
</svg>
