<svg>
<polyline
	points="20,430 610,430 610,30 20,30 20,430"
	fill="#fff"
/>
<polyline
	points="20,430.0 610,430.0"
	stroke="#ddd"
	stroke-width="1"
	fill="none"
	shape-rendering="crispEdges"
/>
<polyline
	points="20,330.0 610,330.0"
	shape-rendering="crispEdges"
	stroke="#ddd"
	stroke-width="1"
	fill="none"
/>
<polyline
	points="20,230.0 610,230.0"
	stroke="#ddd"
	stroke-width="1"
	fill="none"
	shape-rendering="crispEdges"
/>
<polyline
	points="20,130.0 610,130.0"
	shape-rendering="crispEdges"
	stroke="#ddd"
	stroke-width="1"
	fill="none"
/>
<polyline
	points="20,30.0 610,30.0"
	stroke="#ddd"
	stroke-width="1"
	fill="none"
	shape-rendering="crispEdges"
/>
<polyline
	points="20.0,430 20.0,30"
	shape-rendering="crispEdges"
	stroke="#ddd"
	stroke-width="1"
	fill="none"
/>
<polyline
	points="118.333333333,430 118.333333333,30"
	stroke="#ddd"
	stroke-width="1"
	fill="none"
	shape-rendering="crispEdges"
/>
<polyline
	points="216.666666667,430 216.666666667,30"
	shape-rendering="crispEdges"
	stroke="#ddd"
	stroke-width="1"
	fill="none"
/>
<polyline
	points="315.0,430 315.0,30"
	stroke="#ddd"
	stroke-width="1"
	fill="none"
	shape-rendering="crispEdges"
/>
<polyline
	points="413.333333333,430 413.333333333,30"
	shape-rendering="crispEdges"
	stroke="#ddd"
	stroke-width="1"
	fill="none"
/>
<polyline
	points="511.666666667,430 511.666666667,30"
	stroke="#ddd"
	stroke-width="1"
	fill="none"
	shape-rendering="crispEdges"
/>
<polyline
	points="610.0,430 610.0,30"
	shape-rendering="crispEdges"
	stroke="#ddd"
	stroke-width="1"
	fill="none"
/>
<polyline
	points="19,30 613,30"
	stroke="#999"
	stroke-width="1"
	fill="none"
	shape-rendering="crispEdges"
/>
<polyline
	points="19,430 613,430"
	shape-rendering="crispEdges"
	stroke="#999"
	stroke-width="1"
	fill="none"
/>
<polyline
	points="20,433 20,30"
	stroke="#999"
	stroke-width="1"
	fill="none"
	shape-rendering="crispEdges"
/>
<polyline
	points="610,433 610,30"
	shape-rendering="crispEdges"
	stroke="#999"
	stroke-width="1"
	fill="none"
/>
<polyline
	points="610,178 607,174 607,170 603,166 600,162 597,158 593,154 590,150 587,146 583,142 577,138 571,134 565,130 560,126 556,122 552,118 549,114 546,110 542,106 539,102 536,98 533,94 529,90 525,86 521,82 517,78 514,74 512,70 509,66 506,62 502,58 498,54 495,50 492,46 488,42 484,38 484,54 484,38 483,34 483,430 610,430 610,178"
	stroke="#2e7eb3"
	stroke-width="1"
	fill="#2e7eb3"
/>
<polyline
	points="483,34 474,34 466,34 458,34 458,58 450,58 444,62 440,66 436,70 432,74 429,78 427,82 424,86 422,90 420,94 418,98 416,102 415,106 413,110 412,114 410,118 409,122 408,126 407,130 406,134 404,138 403,142 402,146 401,150 400,154 399,158 399,162 398,166 397,170 396,174 395,178 394,182 393,186 392,190 391,194 390,198 389,202 389,206 388,210 387,214 386,218 385,222 384,226 383,230 382,234 381,238 380,242 379,246 379,250 378,254 377,258 376,262 375,266 374,270 373,274 372,278 371,282 370,286 370,290 369,294 368,298 367,302 366,306 365,310 365,314 364,318 363,322 362,326 361,330 360,334 360,338 359,342 358,346 357,350 356,354 355,358 354,362 354,366 353,370 352,374 351,378 350,382 349,386 349,390 348,394 347,398 346,402 345,406 345,410 345,430 483,430 483,34"
	stroke="#4aa635"
	stroke-width="1"
	fill="#4aa635"
/>
<polyline
	points="345,410 345,430 345,430 345,410"
	stroke="#2e7eb3"
	stroke-width="1"
	fill="#2e7eb3"
/>
<polyline
	points="345,410 341,406 341,402 340,386 337,382 335,378 332,374 330,370 328,366 326,362 323,358 319,354 315,350 311,346 307,342 304,338 301,334 299,330 296,326 293,322 291,318 291,314 291,314 288,310 285,306 282,302 279,298 277,294 277,290 277,290 275,286 272,282 270,278 267,274 265,270 262,266 260,262 257,258 254,254 252,250 249,246 246,242 244,238 241,234 238,230 236,226 233,222 230,218 227,214 224,210 220,206 217,202 214,198 211,194 208,190 205,186 205,126 204,122 204,122 202,118 199,114 195,110 192,106 188,102 184,98 184,94 184,86 179,82 175,78 172,74 169,70 165,66 161,62 158,58 154,54 151,50 151,50 150,46 148,46 148,430 345,430 345,410"
	stroke="#2e7eb3"
	stroke-width="1"
	fill="#2e7eb3"
/>
<polyline
	points="148,30 140,30 140,430 148,430 148,30"
	stroke="#2e7eb3"
	stroke-width="1"
	fill="#2e7eb3"
/>
<polyline
	points="140,34 132,34 124,34 118,38 118,430 140,430 140,34"
	stroke="#4aa635"
	stroke-width="1"
	fill="#4aa635"
/>
<polyline
	points="118,38 118,430 118,430 118,38"
	stroke="#2e7eb3"
	stroke-width="1"
	fill="#2e7eb3"
/>
<polyline
	points="118,38 118,430 118,430 118,38"
	stroke="#2e7eb3"
	stroke-width="1"
	fill="#2e7eb3"
/>
<polyline
	points="118,38 118,430 118,430 118,38"
	stroke="#4aa635"
	stroke-width="1"
	fill="#4aa635"
/>
<polyline
	points="118,38 118,430 118,430 118,38"
	stroke="#2e7eb3"
	stroke-width="1"
	fill="#2e7eb3"
/>
<polyline
	points="118,38 118,430 118,430 118,38"
	stroke="#2e7eb3"
	stroke-width="1"
	fill="#2e7eb3"
/>
<polyline
	points="118,38 118,38 118,430 118,430 118,38"
	stroke="#4aa635"
	stroke-width="1"
	fill="#4aa635"
/>
<polyline
	points="118,38 118,430 118,430 118,38"
	stroke="#2e7eb3"
	stroke-width="1"
	fill="#2e7eb3"
/>
<polyline
	points="118,38 118,430 118,430 118,38"
	stroke="#2e7eb3"
	stroke-width="1"
	fill="#2e7eb3"
/>
<polyline
	points="118,38 117,38 117,42 112,42 108,46 105,50 102,54 101,58 101,430 118,430 118,38"
	stroke="#4aa635"
	stroke-width="1"
	fill="#4aa635"
/>
<polyline
	points="101,58 101,430 101,430 101,58"
	stroke="#2e7eb3"
	stroke-width="1"
	fill="#2e7eb3"
/>
<polyline
	points="101,58 99,54 99,54 98,54 98,50 98,50 97,50 97,430 101,430 101,58"
	stroke="#2e7eb3"
	stroke-width="1"
	fill="#2e7eb3"
/>
<polyline
	points="97,30 96,30 96,430 97,430 97,30"
	stroke="#2e7eb3"
	stroke-width="1"
	fill="#2e7eb3"
/>
<polyline
	points="96,50 92,46 88,42 86,38 86,34 85,30 85,430 96,430 96,50"
	stroke="#2e7eb3"
	stroke-width="1"
	fill="#2e7eb3"
/>
<polyline
	points="85,30 77,30 77,430 85,430 85,30"
	stroke="#2e7eb3"
	stroke-width="1"
	fill="#2e7eb3"
/>
<polyline
	points="77,34 69,34 67,34 67,34 63,34 62,34 61,34 61,34 60,34 60,34 59,34 54,34 54,38 54,38 46,38 40,42 35,46 31,50 28,54 25,58 22,62 20,66 20,430 77,430 77,34"
	stroke="#4aa635"
	stroke-width="1"
	fill="#4aa635"
/>
<polyline
	points="20,430.0 610,430.0"
	fill="none"
	stroke="#ddd"
	stroke-width="1"
	stroke-dasharray="1, 5"
	shape-rendering="crispEdges"
/>
<polyline
	points="20,330.0 610,330.0"
	shape-rendering="crispEdges"
	stroke="#ddd"
	stroke-width="1"
	stroke-dasharray="1, 5"
	fill="none"
/>
<polyline
	points="20,230.0 610,230.0"
	fill="none"
	stroke="#ddd"
	stroke-width="1"
	stroke-dasharray="1, 5"
	shape-rendering="crispEdges"
/>
<polyline
	points="20,130.0 610,130.0"
	shape-rendering="crispEdges"
	stroke="#ddd"
	stroke-width="1"
	stroke-dasharray="1, 5"
	fill="none"
/>
<polyline
	points="20,30.0 610,30.0"
	fill="none"
	stroke="#ddd"
	stroke-width="1"
	stroke-dasharray="1, 5"
	shape-rendering="crispEdges"
/>
<polyline
	points="20.0,430 20.0,30"
	shape-rendering="crispEdges"
	stroke="#ddd"
	stroke-width="1"
	stroke-dasharray="1, 5"
	fill="none"
/>
<polyline
	points="118.333333333,430 118.333333333,30"
	fill="none"
	stroke="#ddd"
	stroke-width="1"
	stroke-dasharray="1, 5"
	shape-rendering="crispEdges"
/>
<polyline
	points="216.666666667,430 216.666666667,30"
	shape-rendering="crispEdges"
	stroke="#ddd"
	stroke-width="1"
	stroke-dasharray="1, 5"
	fill="none"
/>
<polyline
	points="315.0,430 315.0,30"
	fill="none"
	stroke="#ddd"
	stroke-width="1"
	stroke-dasharray="1, 5"
	shape-rendering="crispEdges"
/>
<polyline
	points="413.333333333,430 413.333333333,30"
	shape-rendering="crispEdges"
	stroke="#ddd"
	stroke-width="1"
	stroke-dasharray="1, 5"
	fill="none"
/>
<polyline
	points="511.666666667,430 511.666666667,30"
	fill="none"
	stroke="#ddd"
	stroke-width="1"
	stroke-dasharray="1, 5"
	shape-rendering="crispEdges"
/>
<polyline
	points="610.0,430 610.0,30"
	shape-rendering="crispEdges"
	stroke="#ddd"
	stroke-width="1"
	stroke-dasharray="1, 5"
	fill="none"
/>
<polyline
	points="19,30 613,30"
	stroke="#999"
	stroke-width="1"
	fill="none"
	shape-rendering="crispEdges"
/>
<polyline
	points="19,430 613,430"
	shape-rendering="crispEdges"
	stroke="#999"
	stroke-width="1"
	fill="none"
/>
<polyline
	points="20,433 20,30"
	stroke="#999"
	stroke-width="1"
	fill="none"
	shape-rendering="crispEdges"
/>
<polyline
	points="610,433 610,30"
	shape-rendering="crispEdges"
	stroke="#999"
	stroke-width="1"
	fill="none"
/>
<text
	font-size="10"
	text-anchor="start"
	y="433.0"
	x="615"
	font-family="Verdana"
	fill="#777"
>
0 %
</text>
<text
	font-size="10"
	text-anchor="start"
	y="333.0"
	x="615"
	font-family="Verdana"
	fill="#777"
>
25 %
</text>
<text
	font-size="10"
	text-anchor="start"
	y="233.0"
	x="615"
	font-family="Verdana"
	fill="#777"
>
50 %
</text>
<text
	font-size="10"
	text-anchor="start"
	y="133.0"
	x="615"
	font-family="Verdana"
	fill="#777"
>
75%
</text>
<text
	font-size="10"
	text-anchor="start"
	y="33.0"
	x="615"
	font-family="Verdana"
	fill="#777"
>
100 %
</text>
<text
	font-size="10"
	text-anchor="middle"
	y="445"
	x="20.0"
	font-family="Verdana"
	fill="#777"
>
12 hours
</text>
<text
	font-size="10"
	text-anchor="middle"
	y="445"
	x="118.333333333"
	font-family="Verdana"
	fill="#777"
>
10
</text>
<text
	font-size="10"
	text-anchor="middle"
	y="445"
	x="216.666666667"
	font-family="Verdana"
	fill="#777"
>
8
</text>
<text
	font-size="10"
	text-anchor="middle"
	y="445"
	x="315.0"
	font-family="Verdana"
	fill="#777"
>
6
</text>
<text
	font-size="10"
	text-anchor="middle"
	y="445"
	x="413.333333333"
	font-family="Verdana"
	fill="#777"
>
4
</text>
<text
	font-size="10"
	text-anchor="middle"
	y="445"
	x="511.666666667"
	font-family="Verdana"
	fill="#777"
>
2
</text>
<text
	font-size="10"
	text-anchor="middle"
	y="445"
	x="610.0"
	font-family="Verdana"
	fill="#777"
>
0
</text>
<text
	font-size="10"
	text-anchor="start"
	y="433.0"
	x="615"
	font-family="Verdana"
	fill="#777"
>
0 %
</text>
<text
	font-size="10"
	text-anchor="start"
	y="333.0"
	x="615"
	font-family="Verdana"
	fill="#777"
>
25 %
</text>
<text
	font-size="10"
	text-anchor="start"
	y="233.0"
	x="615"
	font-family="Verdana"
	fill="#777"
>
50 %
</text>
<text
	font-size="10"
	text-anchor="start"
	y="133.0"
	x="615"
	font-family="Verdana"
	fill="#777"
>
75%
</text>
<text
	font-size="10"
	text-anchor="start"
	y="33.0"
	x="615"
	font-family="Verdana"
	fill="#777"
>
100 %
</text>
<text
	font-size="10"
	text-anchor="middle"
	y="445"
	x="20.0"
	font-family="Verdana"
	fill="#777"
>
12 hours
</text>
<text
	font-size="10"
	text-anchor="middle"
	y="445"
	x="118.333333333"
	font-family="Verdana"
	fill="#777"
>
10
</text>
<text
	font-size="10"
	text-anchor="middle"
	y="445"
	x="216.666666667"
	font-family="Verdana"
	fill="#777"
>
8
</text>
<text
	font-size="10"
	text-anchor="middle"
	y="445"
	x="315.0"
	font-family="Verdana"
	fill="#777"
>
6
</text>
<text
	font-size="10"
	text-anchor="middle"
	y="445"
	x="413.333333333"
	font-family="Verdana"
	fill="#777"
>
4
</text>
<text
	font-size="10"
	text-anchor="middle"
	y="445"
	x="511.666666667"
	font-family="Verdana"
	fill="#777"
>
2
</text>
<text
	font-size="10"
	text-anchor="middle"
	y="445"
	x="610.0"
	font-family="Verdana"
	fill="#777"
>
0
</text>
</svg>
