<svg>
<polyline
	points="20,430 610,430 610,30 20,30 20,430"
	fill="#fff"
/>
<polyline
	points="20,430.0 610,430.0"
	stroke="#ddd"
	stroke-width="1"
	fill="none"
	shape-rendering="crispEdges"
/>
<polyline
	points="20,330.0 610,330.0"
	shape-rendering="crispEdges"
	stroke="#ddd"
	stroke-width="1"
	fill="none"
/>
<polyline
	points="20,230.0 610,230.0"
	stroke="#ddd"
	stroke-width="1"
	fill="none"
	shape-rendering="crispEdges"
/>
<polyline
	points="20,130.0 610,130.0"
	shape-rendering="crispEdges"
	stroke="#ddd"
	stroke-width="1"
	fill="none"
/>
<polyline
	points="20,30.0 610,30.0"
	stroke="#ddd"
	stroke-width="1"
	fill="none"
	shape-rendering="crispEdges"
/>
<polyline
	points="20.0,430 20.0,30"
	shape-rendering="crispEdges"
	stroke="#ddd"
	stroke-width="1"
	fill="none"
/>
<polyline
	points="118.333333333,430 118.333333333,30"
	stroke="#ddd"
	stroke-width="1"
	fill="none"
	shape-rendering="crispEdges"
/>
<polyline
	points="216.666666667,430 216.666666667,30"
	shape-rendering="crispEdges"
	stroke="#ddd"
	stroke-width="1"
	fill="none"
/>
<polyline
	points="315.0,430 315.0,30"
	stroke="#ddd"
	stroke-width="1"
	fill="none"
	shape-rendering="crispEdges"
/>
<polyline
	points="413.333333333,430 413.333333333,30"
	shape-rendering="crispEdges"
	stroke="#ddd"
	stroke-width="1"
	fill="none"
/>
<polyline
	points="511.666666667,430 511.666666667,30"
	stroke="#ddd"
	stroke-width="1"
	fill="none"
	shape-rendering="crispEdges"
/>
<polyline
	points="610.0,430 610.0,30"
	shape-rendering="crispEdges"
	stroke="#ddd"
	stroke-width="1"
	fill="none"
/>
<polyline
	points="19,30 613,30"
	stroke="#999"
	stroke-width="1"
	fill="none"
	shape-rendering="crispEdges"
/>
<polyline
	points="19,430 613,430"
	shape-rendering="crispEdges"
	stroke="#999"
	stroke-width="1"
	fill="none"
/>
<polyline
	points="20,433 20,30"
	stroke="#999"
	stroke-width="1"
	fill="none"
	shape-rendering="crispEdges"
/>
<polyline
	points="610,433 610,30"
	shape-rendering="crispEdges"
	stroke="#999"
	stroke-width="1"
	fill="none"
/>
<polyline
	points="610,74 607,70 604,66 601,62 597,58 593,54 590,50 587,46 583,42 579,38 579,54 579,38 578,34 578,430 610,430 610,74"
	stroke="#2e7eb3"
	stroke-width="1"
	fill="#2e7eb3"
/>
<polyline
	points="578,34 569,34 561,34 553,34 553,58 545,58 539,62 534,66 531,70 527,74 524,78 521,82 519,86 517,90 515,94 513,98 511,102 510,106 508,110 507,114 505,118 504,122 503,126 502,130 500,134 499,138 498,142 497,146 496,150 495,154 494,158 493,162 492,166 491,170 491,174 490,178 489,182 488,186 487,190 486,194 485,198 484,202 483,206 482,210 481,214 481,218 480,222 479,226 478,230 477,234 476,238 475,242 474,246 473,250 472,254 471,258 470,262 470,266 469,270 468,274 467,278 466,282 465,286 464,290 463,294 463,298 462,302 461,306 460,310 459,314 458,318 458,322 457,326 456,330 455,334 454,338 453,342 452,346 452,350 451,354 450,358 449,362 448,366 447,370 447,374 446,378 445,382 444,386 443,390 442,394 442,398 441,402 440,406 440,410 440,430 578,430 578,34"
	stroke="#4aa635"
	stroke-width="1"
	fill="#4aa635"
/>
<polyline
	points="440,410 440,430 440,430 440,410"
	stroke="#2e7eb3"
	stroke-width="1"
	fill="#2e7eb3"
/>
<polyline
	points="440,410 436,406 436,402 435,386 432,382 429,378 427,374 425,370 423,366 420,362 418,358 414,354 410,350 405,346 401,342 398,338 396,334 393,330 391,326 388,322 386,318 385,314 385,314 382,310 379,306 377,302 374,298 372,294 371,290 371,290 369,286 367,282 364,278 362,274 359,270 357,266 354,262 352,258 349,254 346,250 344,246 341,242 338,238 335,234 333,230 330,226 328,222 324,218 321,214 318,210 315,206 311,202 308,198 305,194 302,190 299,186 299,126 298,122 298,122 296,118 293,114 289,110 286,106 282,102 279,98 278,94 278,86 273,82 269,78 266,74 263,70 259,66 256,62 252,58 248,54 245,50 245,50 244,46 243,46 243,430 440,430 440,410"
	stroke="#2e7eb3"
	stroke-width="1"
	fill="#2e7eb3"
/>
<polyline
	points="243,30 234,30 234,430 243,430 243,30"
	stroke="#2e7eb3"
	stroke-width="1"
	fill="#2e7eb3"
/>
<polyline
	points="234,34 226,34 218,34 212,38 212,430 234,430 234,34"
	stroke="#4aa635"
	stroke-width="1"
	fill="#4aa635"
/>
<polyline
	points="212,38 212,430 212,430 212,38"
	stroke="#2e7eb3"
	stroke-width="1"
	fill="#2e7eb3"
/>
<polyline
	points="212,38 212,430 212,430 212,38"
	stroke="#2e7eb3"
	stroke-width="1"
	fill="#2e7eb3"
/>
<polyline
	points="212,38 212,430 212,430 212,38"
	stroke="#4aa635"
	stroke-width="1"
	fill="#4aa635"
/>
<polyline
	points="212,38 212,430 212,430 212,38"
	stroke="#2e7eb3"
	stroke-width="1"
	fill="#2e7eb3"
/>
<polyline
	points="212,38 212,430 212,430 212,38"
	stroke="#2e7eb3"
	stroke-width="1"
	fill="#2e7eb3"
/>
<polyline
	points="212,38 212,38 212,430 212,430 212,38"
	stroke="#4aa635"
	stroke-width="1"
	fill="#4aa635"
/>
<polyline
	points="212,38 212,430 212,430 212,38"
	stroke="#2e7eb3"
	stroke-width="1"
	fill="#2e7eb3"
/>
<polyline
	points="212,38 212,430 212,430 212,38"
	stroke="#2e7eb3"
	stroke-width="1"
	fill="#2e7eb3"
/>
<polyline
	points="212,38 211,38 211,42 206,42 202,46 199,50 196,54 195,58 195,430 212,430 212,38"
	stroke="#4aa635"
	stroke-width="1"
	fill="#4aa635"
/>
<polyline
	points="195,58 195,430 195,430 195,58"
	stroke="#2e7eb3"
	stroke-width="1"
	fill="#2e7eb3"
/>
<polyline
	points="195,58 193,54 193,54 192,54 192,50 192,50 191,50 191,430 195,430 195,58"
	stroke="#2e7eb3"
	stroke-width="1"
	fill="#2e7eb3"
/>
<polyline
	points="191,30 190,30 190,430 191,430 191,30"
	stroke="#2e7eb3"
	stroke-width="1"
	fill="#2e7eb3"
/>
<polyline
	points="190,50 186,46 182,42 180,38 180,34 179,30 179,430 190,430 190,50"
	stroke="#2e7eb3"
	stroke-width="1"
	fill="#2e7eb3"
/>
<polyline
	points="179,30 171,30 171,430 179,430 179,30"
	stroke="#2e7eb3"
	stroke-width="1"
	fill="#2e7eb3"
/>
<polyline
	points="171,34 163,34 161,34 161,34 157,34 155,34 155,34 155,34 154,34 153,34 153,34 148,34 148,38 148,38 140,38 134,42 129,46 125,50 122,54 118,58 116,62 113,66 111,70 109,74 107,78 105,82 104,86 102,90 101,94 100,98 98,102 97,106 96,110 95,114 94,118 93,122 92,126 91,130 90,134 89,138 88,142 88,146 87,150 86,154 85,158 85,158 84,162 84,162 83,166 83,150 83,166 82,170 81,174 81,178 81,430 171,430 171,34"
	stroke="#4aa635"
	stroke-width="1"
	fill="#4aa635"
/>
<polyline
	points="81,178 81,430 81,430 81,178"
	stroke="#2e7eb3"
	stroke-width="1"
	fill="#2e7eb3"
/>
<polyline
	points="81,178 76,174 70,170 65,166 60,162 55,158 49,154 44,150 39,146 34,142 28,138 24,134 20,130 20,430 81,430 81,178"
	stroke="#2e7eb3"
	stroke-width="1"
	fill="#2e7eb3"
/>
<polyline
	points="20,430.0 610,430.0"
	fill="none"
	stroke="#ddd"
	stroke-width="1"
	stroke-dasharray="1, 5"
	shape-rendering="crispEdges"
/>
<polyline
	points="20,330.0 610,330.0"
	shape-rendering="crispEdges"
	stroke="#ddd"
	stroke-width="1"
	stroke-dasharray="1, 5"
	fill="none"
/>
<polyline
	points="20,230.0 610,230.0"
	fill="none"
	stroke="#ddd"
	stroke-width="1"
	stroke-dasharray="1, 5"
	shape-rendering="crispEdges"
/>
<polyline
	points="20,130.0 610,130.0"
	shape-rendering="crispEdges"
	stroke="#ddd"
	stroke-width="1"
	stroke-dasharray="1, 5"
	fill="none"
/>
<polyline
	points="20,30.0 610,30.0"
	fill="none"
	stroke="#ddd"
	stroke-width="1"
	stroke-dasharray="1, 5"
	shape-rendering="crispEdges"
/>
<polyline
	points="20.0,430 20.0,30"
	shape-rendering="crispEdges"
	stroke="#ddd"
	stroke-width="1"
	stroke-dasharray="1, 5"
	fill="none"
/>
<polyline
	points="118.333333333,430 118.333333333,30"
	fill="none"
	stroke="#ddd"
	stroke-width="1"
	stroke-dasharray="1, 5"
	shape-rendering="crispEdges"
/>
<polyline
	points="216.666666667,430 216.666666667,30"
	shape-rendering="crispEdges"
	stroke="#ddd"
	stroke-width="1"
	stroke-dasharray="1, 5"
	fill="none"
/>
<polyline
	points="315.0,430 315.0,30"
	fill="none"
	stroke="#ddd"
	stroke-width="1"
	stroke-dasharray="1, 5"
	shape-rendering="crispEdges"
/>
<polyline
	points="413.333333333,430 413.333333333,30"
	shape-rendering="crispEdges"
	stroke="#ddd"
	stroke-width="1"
	stroke-dasharray="1, 5"
	fill="none"
/>
<polyline
	points="511.666666667,430 511.666666667,30"
	fill="none"
	stroke="#ddd"
	stroke-width="1"
	stroke-dasharray="1, 5"
	shape-rendering="crispEdges"
/>
<polyline
	points="610.0,430 610.0,30"
	shape-rendering="crispEdges"
	stroke="#ddd"
	stroke-width="1"
	stroke-dasharray="1, 5"
	fill="none"
/>
<polyline
	points="19,30 613,30"
	stroke="#999"
	stroke-width="1"
	fill="none"
	shape-rendering="crispEdges"
/>
<polyline
	points="19,430 613,430"
	shape-rendering="crispEdges"
	stroke="#999"
	stroke-width="1"
	fill="none"
/>
<polyline
	points="20,433 20,30"
	stroke="#999"
	stroke-width="1"
	fill="none"
	shape-rendering="crispEdges"
/>
<polyline
	points="610,433 610,30"
	shape-rendering="crispEdges"
	stroke="#999"
	stroke-width="1"
	fill="none"
/>
<text
	font-size="10"
	text-anchor="start"
	y="433.0"
	x="615"
	font-family="Verdana"
	fill="#777"
>
0 %
</text>
<text
	font-size="10"
	text-anchor="start"
	y="333.0"
	x="615"
	font-family="Verdana"
	fill="#777"
>
25 %
</text>
<text
	font-size="10"
	text-anchor="start"
	y="233.0"
	x="615"
	font-family="Verdana"
	fill="#777"
>
50 %
</text>
<text
	font-size="10"
	text-anchor="start"
	y="133.0"
	x="615"
	font-family="Verdana"
	fill="#777"
>
75%
</text>
<text
	font-size="10"
	text-anchor="start"
	y="33.0"
	x="615"
	font-family="Verdana"
	fill="#777"
>
100 %
</text>
<text
	font-size="10"
	text-anchor="middle"
	y="445"
	x="20.0"
	font-family="Verdana"
	fill="#777"
>
12 hours
</text>
<text
	font-size="10"
	text-anchor="middle"
	y="445"
	x="118.333333333"
	font-family="Verdana"
	fill="#777"
>
10
</text>
<text
	font-size="10"
	text-anchor="middle"
	y="445"
	x="216.666666667"
	font-family="Verdana"
	fill="#777"
>
8
</text>
<text
	font-size="10"
	text-anchor="middle"
	y="445"
	x="315.0"
	font-family="Verdana"
	fill="#777"
>
6
</text>
<text
	font-size="10"
	text-anchor="middle"
	y="445"
	x="413.333333333"
	font-family="Verdana"
	fill="#777"
>
4
</text>
<text
	font-size="10"
	text-anchor="middle"
	y="445"
	x="511.666666667"
	font-family="Verdana"
	fill="#777"
>
2
</text>
<text
	font-size="10"
	text-anchor="middle"
	y="445"
	x="610.0"
	font-family="Verdana"
	fill="#777"
>
0
</text>
<text
	font-size="10"
	text-anchor="start"
	y="433.0"
	x="615"
	font-family="Verdana"
	fill="#777"
>
0 %
</text>
<text
	font-size="10"
	text-anchor="start"
	y="333.0"
	x="615"
	font-family="Verdana"
	fill="#777"
>
25 %
</text>
<text
	font-size="10"
	text-anchor="start"
	y="233.0"
	x="615"
	font-family="Verdana"
	fill="#777"
>
50 %
</text>
<text
	font-size="10"
	text-anchor="start"
	y="133.0"
	x="615"
	font-family="Verdana"
	fill="#777"
>
75%
</text>
<text
	font-size="10"
	text-anchor="start"
	y="33.0"
	x="615"
	font-family="Verdana"
	fill="#777"
>
100 %
</text>
<text
	font-size="10"
	text-anchor="middle"
	y="445"
	x="20.0"
	font-family="Verdana"
	fill="#777"
>
12 hours
</text>
<text
	font-size="10"
	text-anchor="middle"
	y="445"
	x="118.333333333"
	font-family="Verdana"
	fill="#777"
>
10
</text>
<text
	font-size="10"
	text-anchor="middle"
	y="445"
	x="216.666666667"
	font-family="Verdana"
	fill="#777"
>
8
</text>
<text
	font-size="10"
	text-anchor="middle"
	y="445"
	x="315.0"
	font-family="Verdana"
	fill="#777"
>
6
</text>
<text
	font-size="10"
	text-anchor="middle"
	y="445"
	x="413.333333333"
	font-family="Verdana"
	fill="#777"
>
4
</text>
<text
	font-size="10"
	text-anchor="middle"
	y="445"
	x="511.666666667"
	font-family="Verdana"
	fill="#777"
>
2
</text>
<text
	font-size="10"
	text-anchor="middle"
	y="445"
	x="610.0"
	font-family="Verdana"
	fill="#777"
>
0
</text>
</svg>
